<svg xmlns="http://www.w3.org/2000/svg" viewBox="0 0 100 118" width="100" height="118" fill="none" role="img" aria-label="Droplet Labs">
  <defs>
    <linearGradient id="g" x1="22" y1="12" x2="80" y2="104" gradientUnits="userSpaceOnUse">
      <stop offset="0" stop-color="#264a6e"/>
      <stop offset=".55" stop-color="#3f74a6"/>
      <stop offset="1" stop-color="#6ea3cf"/>
    </linearGradient>
  </defs>
  <path d="M50 10C31 39 18 55 18 74c0 19 15 31 32 31s32-12 32-31C82 55 69 39 50 10Z" stroke="url(#g)" stroke-width="3.4" stroke-linejoin="round"/>
  <path d="M45 62 36 51 36 44M50 59V46M57 61 65 52" stroke="url(#g)" stroke-width="2.2" stroke-linecap="round" stroke-linejoin="round"/>
  <circle cx="36" cy="42" r="2.7" fill="url(#g)"/>
  <circle cx="50" cy="43" r="2.7" fill="url(#g)"/>
  <circle cx="67" cy="50" r="2.7" fill="url(#g)"/>
  <path d="M47 62 58 68 58 80 47 86 36 80 36 68Z" stroke="url(#g)" stroke-width="2.2" stroke-linejoin="round"/>
  <path d="M36 68 47 74 58 68M47 86V74" stroke="url(#g)" stroke-width="2.2" stroke-linejoin="round" stroke-linecap="round"/>
  <path d="M64 45 66.4 50.2 72 52 66.4 53.8 64 59 61.6 53.8 56 52 61.6 50.2Z" fill="url(#g)"/>
  <path d="M32 92c9 7 27 7 36 0M36 98c7 4 21 4 28 0" stroke="url(#g)" stroke-width="2.2" stroke-linecap="round"/>
</svg>
